<svg viewBox="124.68399999999995 95.9011235955056 772.6320000000001 716.197752808989" fill="none" xmlns="http://www.w3.org/2000/svg" xmlns:xlink="http://www.w3.org/1999/xlink" overflow="visible" width="715.4000000000001px" height="663.1460674157305px"><rect id="Blush Background Color" fill="#eff6ff" x="124.68399999999995" y="95.9011235955056" width="772.6320000000001" height="716.197752808989"/><g id="Master/Scenes/Life Management"><g id="Background" transform="translate(271 173) scale(1 1)"><g id="Background/1"><path id="Fill 3" fill-rule="evenodd" clip-rule="evenodd" d="M401.585 21.6223C324.481 -31.5289 222.87 16.9322 174.633 129.863L174.597 129.947C172.327 135.265 168.47 139.362 163.384 141.797C138.795 153.569 115.027 169.313 93.1804 188.984C-8.18827 280.257 -29.8672 421.435 44.7573 504.314C119.382 587.193 262.052 580.389 363.421 489.117C415.428 442.289 446.46 382.325 454.271 323.837C454.585 321.484 455.157 319.254 455.993 317.194C501.368 205.349 477.522 73.9681 401.585 21.6223" fill="black" fill-opacity="0.04"/></g></g><g id="Group 80"><g id="Group 5"><path id="Fill 3" fill-rule="evenodd" clip-rule="evenodd" d="M451.55 143.088C451.59 143.026 451.63 142.963 451.671 142.901C454.948 137.963 460.341 138.319 465.563 138.073C472.075 137.766 478.578 137.11 484.744 134.861C494.764 131.207 504.837 125.902 515.846 127.199C524.239 128.187 529.097 133.967 528.893 142.408C528.883 142.817 528.863 143.224 528.834 143.631C528.81 143.984 532.831 146.746 533.254 147.145C535.16 148.947 537.023 151.063 538.254 153.394C544.056 164.377 538.72 177.489 532.706 187.096C532.409 187.569 529.195 192.207 529.254 192.266C526.868 189.932 525.688 189.239 522.239 183.417C524.943 181.295 525.984 177.634 525.651 175.478C525.205 172.598 523.592 170.194 516.727 172.15C515.547 170.837 514.121 167.085 513.028 163.959C512.36 162.052 512.091 160.325 511.989 158.975C504.113 163.083 497.202 165.142 492.468 166.243C478.101 169.588 454.976 171.776 450.243 153.105C449.393 149.749 449.702 146.008 451.55 143.088" fill="black"/></g><path id="Stroke 6" d="M530.435 185.756C531.263 185.776 531.918 186.464 531.898 187.292C531.799 191.297 531.026 195.399 529.402 199.47C526.726 206.186 522.66 210.957 517.977 214.537L517.787 214.68L517.788 235.514C517.788 235.922 517.622 236.31 517.333 236.591L517.218 236.691L501.888 248.812C501.367 249.224 500.642 249.241 500.105 248.87L499.985 248.777L485.765 236.656C485.468 236.403 485.283 236.045 485.245 235.66L485.238 235.514V221.867C485.238 221.039 485.91 220.367 486.738 220.367C487.518 220.367 488.158 220.962 488.231 221.723L488.238 221.867L488.237 234.821L500.993 245.694L514.787 234.788L514.788 213.925C514.788 213.498 514.97 213.094 515.284 212.811L515.407 212.711C520.008 209.373 524.026 204.857 526.615 198.358C528.101 194.634 528.808 190.882 528.898 187.218C528.919 186.39 529.607 185.735 530.435 185.756Z" fill="black"/><path id="Stroke 8" d="M515.876 234.073C516.626 233.86 517.404 234.258 517.681 234.971L517.727 235.108L524.705 259.774C525.058 261.019 523.783 262.073 522.644 261.549L522.527 261.489L500.962 249.357L479.657 261.486C478.509 262.139 477.163 261.101 477.451 259.854L477.485 259.729L485.305 235.063C485.556 234.273 486.399 233.836 487.188 234.086C487.932 234.322 488.363 235.083 488.202 235.83L488.165 235.969L481.502 256.982L500.216 246.33C500.628 246.096 501.123 246.071 501.553 246.257L501.694 246.327L520.828 257.091L514.841 235.924C514.628 235.174 515.026 234.396 515.739 234.119L515.876 234.073Z" fill="black"/><path id="Stroke 10" d="M486.069 230.542C486.811 230.173 487.711 230.475 488.081 231.216C488.45 231.958 488.148 232.858 487.407 233.228L485.136 234.342C482.899 235.427 479.987 236.807 476.071 238.643L447.282 252.077L446.019 252.679L445.395 253.555C443.081 256.736 437.932 263.255 428.119 275.499L409.662 298.519L406.919 301.972L407.542 302.738C410.31 306.125 413.166 309.493 416.115 312.843L417.598 314.517C421.339 318.713 425.142 322.776 429.003 326.716L429.479 327.199L441.346 312.329C442.255 311.19 444.091 311.887 444.016 313.343L436.617 456.865L526.118 456.865C526.898 456.865 527.538 457.46 527.611 458.221L527.618 458.365C527.618 459.145 527.023 459.786 526.263 459.858L526.118 459.865H435.038C434.179 459.865 433.496 459.146 433.54 458.288L440.779 317.849L430.768 330.391C430.209 331.091 429.164 331.147 428.533 330.511C424.063 326.01 419.671 321.35 415.358 316.513C411.352 312.017 407.513 307.489 403.831 302.927C403.391 302.382 403.387 301.605 403.821 301.055L411.287 291.682L430.786 267.363C438.548 257.641 442.379 252.72 443.767 250.66C443.917 250.438 444.123 250.26 444.364 250.145L451.528 246.768L474.78 235.935C480.169 233.409 483.649 231.748 486.069 230.542Z" fill="black"/><path id="Stroke 12" d="M514.919 229.162C515.237 228.45 516.042 228.109 516.766 228.353L516.901 228.406L561.003 248.143C561.27 248.262 561.495 248.457 561.652 248.701L561.725 248.827L593.513 310.83C593.822 311.435 593.686 312.165 593.195 312.617L593.085 312.71L590.174 314.919L590.055 315.019L565.156 333.939C564.485 334.449 563.537 334.303 563.045 333.641L562.963 333.519L549.968 311.971L555.168 404.225C555.168 405.053 554.496 405.725 553.668 405.725C552.888 405.725 552.247 405.13 552.175 404.369L546.633 306.104C546.548 304.59 548.484 303.945 549.339 305.129L549.415 305.245L564.669 330.539L588.126 312.717L588.241 312.62L590.269 311.08L559.296 250.666L515.675 231.144C514.963 230.825 514.622 230.021 514.866 229.297L514.919 229.162Z" fill="black"/><path id="Stroke 14" d="M589.149 312.314C589.782 312.314 590.324 312.707 590.544 313.262L590.561 313.313L604.416 346.577C605.932 350.213 605.728 354.331 603.876 357.792L603.691 358.125L544.411 461.598C541.294 467.04 534.588 469.239 528.871 466.744L528.581 466.613L527.549 466.131C525.047 464.963 523.937 462.03 525.001 459.511L525.095 459.302L531.543 445.744L527.121 445.744C524.623 445.744 522.584 443.776 522.472 441.305L522.468 441.092C522.468 439.255 523.548 437.597 525.213 436.847L525.416 436.762L539.911 431.051L552.27 403.664L552.3 403.588L576.452 350.015L565.584 331.504C565.189 330.831 565.378 329.978 565.997 329.53L566.118 329.451C566.791 329.056 567.644 329.245 568.092 329.864L568.171 329.985L579.431 349.166C579.65 349.539 579.696 349.986 579.563 350.392L579.505 350.542L555.06 404.765L555.035 404.832L542.395 432.841C542.254 433.153 542.012 433.406 541.71 433.56L541.577 433.62L526.517 439.553C525.883 439.803 525.468 440.413 525.468 441.092C525.468 441.957 526.132 442.666 526.978 442.738L527.121 442.744H533.918C534.976 442.744 535.687 443.803 535.323 444.769L535.272 444.889L527.804 460.591C527.324 461.602 527.716 462.802 528.678 463.34L528.819 463.413L529.852 463.895C534.132 465.895 539.214 464.349 541.667 460.345L541.808 460.107L601.088 356.634C602.591 354.011 602.837 350.859 601.771 348.043L601.647 347.731L587.764 314.401C587.707 314.264 587.671 314.12 587.656 313.972L587.649 313.814C587.649 312.986 588.32 312.314 589.149 312.314Z" fill="black"/><path id="Stroke 16" d="M323.523 247.947C323.801 247.392 324.389 247.069 324.999 247.124L325.14 247.144L360.917 253.817C363.365 254.246 365.506 255.706 366.801 257.818L366.952 258.074L398.07 313.02L406.737 304.354C407.286 303.804 408.155 303.77 408.744 304.251L408.858 304.354C409.407 304.903 409.442 305.772 408.961 306.361L408.858 306.475L398.798 316.536C398.132 317.202 397.037 317.091 396.511 316.339L396.432 316.214L364.342 259.553C363.552 258.161 362.213 257.172 360.646 256.821L360.383 256.769L325.7 250.3L324.088 253.525L355.789 267.116C356.098 267.248 356.352 267.48 356.513 267.773L356.576 267.902L385.836 335.993C390.111 345.931 403.028 348.412 410.683 340.86L410.913 340.629L425.663 325.488C426.241 324.894 427.191 324.882 427.784 325.46C428.341 326.002 428.386 326.87 427.914 327.466L427.812 327.581L413.062 342.722C404.039 351.992 388.556 349.237 383.238 337.535L383.079 337.177L354.056 269.637L321.444 255.656C320.694 255.335 320.347 254.481 320.635 253.736L320.693 253.606L323.523 247.947Z" fill="black"/><path id="Stroke 18" d="M549.718 447.805L549.862 447.811C550.639 447.88 551.224 448.53 551.229 449.294L551.222 449.439L525.461 736.539C525.396 737.264 524.823 737.83 524.111 737.898L523.967 737.905H497.537C496.78 737.905 496.149 737.342 496.051 736.605L496.039 736.465L486.719 503.566L463.043 599.068L451.622 736.529C451.561 737.261 450.982 737.834 450.264 737.899L450.127 737.905H422.747C421.968 737.905 421.327 737.31 421.254 736.549L421.247 736.405V593.636L421.261 593.433L439.691 458.162C439.803 457.341 440.559 456.767 441.38 456.878C442.152 456.984 442.707 457.66 442.676 458.423L442.664 458.567L424.247 593.735V734.904H448.746L460.064 598.701C460.067 598.661 460.072 598.621 460.078 598.581L460.103 598.464L486.342 492.624C486.747 490.989 489.083 491.178 489.284 492.776L489.296 492.925L498.978 734.904H522.596L548.234 449.171C548.3 448.443 548.875 447.883 549.576 447.812L549.718 447.805Z" fill="black"/><path id="Stroke 20" d="M518.387 734.905C519.167 734.905 519.808 735.5 519.881 736.26L519.887 736.405L519.887 753.573L530.498 768.767C530.645 768.977 530.735 769.22 530.761 769.473L530.768 769.626V780.865C530.768 781.644 530.174 782.285 529.413 782.358L529.268 782.365H489.768C488.989 782.365 488.348 781.77 488.275 781.009L488.268 780.865V769.626C488.268 769.311 488.367 769.006 488.549 768.752L488.647 768.63L501.457 754.204L501.457 736.405C501.457 735.625 502.052 734.984 502.813 734.912L502.957 734.905C503.737 734.905 504.378 735.5 504.451 736.26L504.457 736.405V754.775C504.457 755.089 504.359 755.395 504.177 755.648L504.079 755.771L491.268 770.194V779.364H527.768V770.097L517.158 754.905C517.011 754.695 516.921 754.452 516.895 754.199L516.887 754.046V736.405C516.887 735.576 517.559 734.905 518.387 734.905Z" fill="black"/><path id="Stroke 22" d="M529.266 768.129C530.095 768.129 530.766 768.801 530.766 769.629C530.766 770.409 530.171 771.05 529.411 771.123L529.266 771.129H489.765C488.937 771.129 488.265 770.458 488.265 769.629C488.265 768.85 488.86 768.209 489.621 768.136L489.765 768.129H529.266Z" fill="black"/><path id="Stroke 24" d="M443.2 734.905C443.98 734.905 444.62 735.5 444.693 736.26L444.7 736.405L444.699 753.573L455.31 768.767C455.456 768.977 455.546 769.22 455.572 769.473L455.58 769.626V780.865C455.58 781.644 454.985 782.285 454.224 782.358L454.08 782.365H414.58C413.8 782.365 413.16 781.77 413.087 781.009L413.08 780.865V769.626C413.08 769.328 413.168 769.039 413.332 768.793L413.421 768.674L425.269 754.238L425.27 736.405C425.27 735.625 425.865 734.984 426.625 734.912L426.77 734.905C427.55 734.905 428.19 735.5 428.263 736.26L428.27 736.405V754.775C428.27 755.072 428.182 755.362 428.018 755.607L427.929 755.726L416.079 770.163V779.364H452.579V770.096L441.97 754.905C441.824 754.695 441.734 754.452 441.708 754.199L441.7 754.046V736.405C441.7 735.576 442.372 734.905 443.2 734.905Z" fill="black"/><path id="Stroke 26" d="M454.079 768.129C454.907 768.129 455.579 768.801 455.579 769.629C455.579 770.409 454.984 771.05 454.223 771.123L454.079 771.129H414.578C413.749 771.129 413.078 770.458 413.078 769.629C413.078 768.85 413.673 768.209 414.433 768.136L414.578 768.129H454.079Z" fill="black"/><path id="Stroke 28" d="M469.482 162.898C469.699 162.099 470.523 161.627 471.323 161.844C472.122 162.061 472.594 162.885 472.377 163.685C468.298 178.701 468.119 193.46 472.73 205.291C475.072 211.297 479.023 216.269 483.963 219.069C489.157 222.014 496.235 221.852 503.575 219.248C504.356 218.971 505.213 219.379 505.49 220.16C505.767 220.941 505.359 221.798 504.578 222.075C496.496 224.942 488.561 225.124 482.484 221.679C476.9 218.515 472.513 212.994 469.935 206.38C465.061 193.876 465.248 178.485 469.482 162.898Z" fill="black"/><path id="Fill 40" fill-rule="evenodd" clip-rule="evenodd" d="M810.348 539.504H541.635L548.216 473.925H810.348V539.504Z" fill="black"/><path id="Fill 42" fill-rule="evenodd" clip-rule="evenodd" d="M326.05 248.294C326.05 257.357 318.703 264.703 309.641 264.703C300.578 264.703 293.232 257.357 293.232 248.294C293.232 239.231 300.578 231.885 309.641 231.885C318.703 231.885 326.05 239.231 326.05 248.294" fill="black"/><path id="Stroke 46" d="M310.303 252.5C311.083 252.5 311.723 253.095 311.796 253.856L311.803 254V388.563C311.803 389.342 311.208 389.983 310.447 390.056L310.303 390.063H239.729C238.949 390.063 238.309 389.468 238.236 388.707L238.229 388.563V312.97C238.229 312.141 238.901 311.47 239.729 311.47C240.509 311.47 241.149 312.065 241.222 312.825L241.229 312.97L241.228 387.062H308.802L308.803 254C308.803 253.22 309.398 252.58 310.159 252.507L310.303 252.5Z" fill="black"/><path id="Fill 45" fill-rule="evenodd" clip-rule="evenodd" d="M223 304.854L240.457 275L257.674 304.854H223Z" fill="black"/><path id="Stroke 47" d="M307.975 193.698C308.755 193.698 309.396 194.293 309.468 195.053L309.475 195.198V217.445C309.475 218.273 308.804 218.945 307.975 218.945C307.196 218.945 306.555 218.35 306.482 217.589L306.475 217.445V195.198C306.475 194.369 307.147 193.698 307.975 193.698Z" fill="black"/><path id="Stroke 48" d="M341.083 205.366C341.669 204.78 342.619 204.78 343.205 205.366C343.754 205.915 343.788 206.784 343.308 207.373L343.205 207.487L325.139 225.553C324.553 226.139 323.603 226.139 323.017 225.553C322.468 225.004 322.434 224.135 322.914 223.546L323.017 223.432L341.083 205.366Z" fill="black"/><path id="Stroke 49" d="M718.046 204.926C718.826 204.926 719.467 205.521 719.539 206.282L719.546 206.426V247.635C719.546 248.415 718.951 249.056 718.191 249.128L718.046 249.135H589.728C588.9 249.135 588.228 248.464 588.228 247.635C588.228 246.856 588.823 246.215 589.584 246.142L589.728 246.135L716.546 246.135V207.926L549.728 207.926C548.949 207.926 548.308 207.331 548.235 206.571L548.228 206.426C548.228 205.647 548.823 205.006 549.584 204.933L549.728 204.926H718.046Z" fill="black"/><path id="Stroke 50" d="M718.047 246.135C718.826 246.135 719.467 246.73 719.54 247.491L719.547 247.635V404.225C719.547 405.005 718.952 405.646 718.191 405.718L718.047 405.725H594.546C593.717 405.725 593.046 405.054 593.046 404.225C593.046 403.446 593.641 402.805 594.401 402.732L594.546 402.725L716.546 402.725L716.547 247.635C716.547 246.856 717.142 246.215 717.902 246.142L718.047 246.135Z" fill="black"/><path id="Stroke 51" d="M687.989 219.031C688.538 218.481 689.407 218.447 689.996 218.928L690.11 219.031L702.888 231.809C703.474 232.394 703.474 233.344 702.888 233.93C702.339 234.479 701.47 234.513 700.881 234.033L700.767 233.93L687.989 221.152C687.403 220.566 687.403 219.616 687.989 219.031Z" fill="black"/><path id="Stroke 52" d="M700.767 219.031C701.353 218.445 702.303 218.445 702.888 219.031C703.438 219.58 703.472 220.449 702.991 221.038L702.888 221.152L690.11 233.93C689.525 234.516 688.575 234.516 687.989 233.93C687.44 233.381 687.406 232.512 687.886 231.923L687.989 231.809L700.767 219.031Z" fill="black"/><path id="Fill 53" fill-rule="evenodd" clip-rule="evenodd" d="M671.854 290.872C671.854 294.512 668.903 297.463 665.263 297.463C661.623 297.463 658.671 294.512 658.671 290.872C658.671 287.231 661.623 284.28 665.263 284.28C668.903 284.28 671.854 287.231 671.854 290.872" fill="black"/><path id="Fill 54" fill-rule="evenodd" clip-rule="evenodd" d="M638.607 290.872C638.607 294.512 635.656 297.463 632.016 297.463C628.376 297.463 625.424 294.512 625.424 290.872C625.424 287.231 628.376 284.28 632.016 284.28C635.656 284.28 638.607 287.231 638.607 290.872" fill="black"/><path id="Fill 55" fill-rule="evenodd" clip-rule="evenodd" d="M605.36 290.872C605.36 294.512 602.409 297.463 598.769 297.463C595.129 297.463 592.177 294.512 592.177 290.872C592.177 287.231 595.129 284.28 598.769 284.28C602.409 284.28 605.36 287.231 605.36 290.872" fill="black"/><path id="Fill 56" fill-rule="evenodd" clip-rule="evenodd" d="M671.854 323.591C671.854 327.232 668.903 330.182 665.263 330.182C661.623 330.182 658.671 327.232 658.671 323.591C658.671 319.95 661.623 317 665.263 317C668.903 317 671.854 319.95 671.854 323.591" fill="black"/><path id="Fill 57" fill-rule="evenodd" clip-rule="evenodd" d="M638.607 323.591C638.607 327.232 635.656 330.182 632.016 330.182C628.376 330.182 625.424 327.232 625.424 323.591C625.424 319.95 628.376 317 632.016 317C635.656 317 638.607 319.95 638.607 323.591" fill="black"/><path id="Fill 58" fill-rule="evenodd" clip-rule="evenodd" d="M605.36 323.591C605.36 327.232 602.409 330.182 598.769 330.182C595.129 330.182 592.177 327.232 592.177 323.591C592.177 319.95 595.129 317 598.769 317C602.409 317 605.36 319.95 605.36 323.591" fill="black"/><path id="Fill 59" fill-rule="evenodd" clip-rule="evenodd" d="M671.854 356.311C671.854 359.952 668.903 362.903 665.263 362.903C661.623 362.903 658.671 359.952 658.671 356.311C658.671 352.671 661.623 349.72 665.263 349.72C668.903 349.72 671.854 352.671 671.854 356.311" fill="black"/><path id="Fill 60" fill-rule="evenodd" clip-rule="evenodd" d="M638.607 356.311C638.607 359.952 635.656 362.903 632.016 362.903C628.376 362.903 625.424 359.952 625.424 356.311C625.424 352.671 628.376 349.72 632.016 349.72C635.656 349.72 638.607 352.671 638.607 356.311" fill="black"/><path id="Stroke 61" d="M823.16 285.962C827.251 285.962 830.636 287.132 833.674 289.382C835.848 290.992 837.315 292.564 840.234 296.152L841.143 297.268C846.567 303.852 849.629 305.962 855.57 305.962C856.398 305.962 857.07 306.634 857.07 307.462C857.07 308.291 856.398 308.962 855.57 308.962C851.479 308.962 848.093 307.792 845.056 305.543L844.63 305.221C842.68 303.714 841.221 302.121 838.496 298.772L837.587 297.657C832.163 291.073 829.101 288.962 823.16 288.962C817.219 288.962 814.157 291.073 808.733 297.657L807.259 299.464C804.706 302.57 803.293 304.04 801.264 305.543C798.226 307.792 794.841 308.962 790.75 308.962C786.659 308.962 783.274 307.792 780.237 305.543L779.811 305.221C777.861 303.714 776.402 302.121 773.678 298.772L773.381 298.407C767.569 291.232 764.504 288.962 758.344 288.962C752.293 288.962 749.229 291.152 743.614 298.027L742.444 299.464C739.891 302.57 738.479 304.041 736.45 305.543C733.413 307.793 730.027 308.962 725.937 308.962C721.846 308.962 718.461 307.792 715.424 305.543L714.998 305.221C713.048 303.714 711.589 302.121 708.865 298.772L708.259 298.027L707.657 297.295C702.419 290.995 699.362 288.962 693.532 288.962C692.704 288.962 692.032 288.291 692.032 287.462C692.032 286.634 692.704 285.962 693.532 285.962C697.622 285.962 701.007 287.132 704.044 289.382L704.47 289.704C706.35 291.156 707.774 292.69 710.315 295.8L710.899 296.518C716.712 303.693 719.776 305.962 725.937 305.962C731.877 305.962 734.939 303.852 740.362 297.269L742.133 295.101C744.501 292.239 745.881 290.825 747.83 289.382C750.868 287.132 754.253 285.962 758.344 285.962C762.435 285.962 765.82 287.132 768.857 289.382C771.031 290.992 772.497 292.564 775.416 296.153L776.325 297.268C781.748 303.852 784.81 305.962 790.75 305.962C796.691 305.962 799.753 303.852 805.177 297.268L806.921 295.134C809.305 292.249 810.689 290.831 812.646 289.382C815.683 287.132 819.069 285.962 823.16 285.962Z" fill="black"/><path id="Stroke 62" d="M823.16 321.091C827.251 321.091 830.636 322.261 833.674 324.511L834.1 324.833C835.841 326.178 837.191 327.592 839.399 330.263L841.143 332.397C846.567 338.981 849.629 341.091 855.57 341.091C856.398 341.091 857.07 341.763 857.07 342.591C857.07 343.42 856.398 344.091 855.57 344.091C851.479 344.091 848.093 342.921 845.056 340.672L844.63 340.35C842.68 338.843 841.221 337.25 838.496 333.901L838.2 333.536C832.386 326.361 829.321 324.091 823.16 324.091C817.109 324.091 814.044 326.281 808.429 333.156L807.259 334.593C804.706 337.699 803.293 339.169 801.264 340.672C798.226 342.921 794.841 344.091 790.75 344.091C786.659 344.091 783.274 342.921 780.237 340.672L779.811 340.35C777.861 338.843 776.402 337.25 773.678 333.901L773.381 333.536C767.569 326.361 764.504 324.091 758.344 324.091C752.293 324.091 749.229 326.281 743.614 333.156L742.444 334.593C739.891 337.699 738.479 339.169 736.45 340.672C733.413 342.921 730.027 344.091 725.937 344.091C721.846 344.091 718.461 342.921 715.424 340.672L714.998 340.35C713.048 338.843 711.589 337.25 708.865 333.901L708.259 333.155L707.657 332.424C702.419 326.124 699.362 324.091 693.532 324.091C692.704 324.091 692.032 323.42 692.032 322.591C692.032 321.763 692.704 321.091 693.532 321.091C697.622 321.091 701.007 322.261 704.044 324.511L704.47 324.833C706.35 326.285 707.774 327.819 710.315 330.929L710.899 331.647C716.712 338.822 719.776 341.091 725.937 341.091C731.877 341.091 734.939 338.981 740.362 332.398L742.133 330.23C744.501 327.368 745.881 325.954 747.83 324.511C750.868 322.261 754.253 321.091 758.344 321.091C762.435 321.091 765.82 322.261 768.857 324.511L769.283 324.833C771.233 326.339 772.692 327.933 775.416 331.281L776.325 332.397C781.748 338.981 784.81 341.091 790.75 341.091C796.691 341.091 799.753 338.981 805.177 332.397L806.921 330.263C809.305 327.378 810.689 325.96 812.646 324.511C815.683 322.261 819.069 321.091 823.16 321.091Z" fill="black"/><path id="Stroke 63" d="M850.67 779.365C851.498 779.365 852.17 780.036 852.17 780.865C852.17 781.644 851.575 782.285 850.814 782.358L850.67 782.365H166.5C165.671 782.365 165 781.693 165 780.865C165 780.085 165.595 779.444 166.355 779.372L166.5 779.365H850.67Z" fill="black"/><path id="Fill 74" fill-rule="evenodd" clip-rule="evenodd" d="M414.578 780.865H454.079V769.63H414.578V780.865Z" fill="black"/><path id="Fill 75" fill-rule="evenodd" clip-rule="evenodd" d="M489.767 780.865H529.268V769.63H489.767V780.865Z" fill="black"/><path id="Fill 78" fill-rule="evenodd" clip-rule="evenodd" d="M487.024 221.951C489.16 222.447 492.398 222.936 496.299 222.526C499.782 222.16 502.57 221.206 504.472 220.385C503.686 222.102 501.581 226.088 497.018 229.113C492.775 231.927 488.628 232.437 486.738 232.554C486.834 229.019 486.928 225.485 487.024 221.951" fill="black"/><path id="Stroke 79" fill-rule="evenodd" clip-rule="evenodd" d="M496.142 221.034C498.994 220.734 501.549 220.013 503.878 219.008C505.139 218.463 506.408 219.76 505.836 221.009C504.249 224.476 501.786 227.751 497.847 230.363C494.16 232.808 490.438 233.828 486.831 234.051C485.951 234.105 485.215 233.394 485.239 232.513L485.525 221.91C485.55 220.962 486.439 220.275 487.363 220.49C490.072 221.119 492.982 221.366 496.142 221.034ZM501.061 223.258L501.147 223.137L500.692 223.259C499.347 223.604 497.937 223.862 496.456 224.018C493.766 224.3 491.239 224.206 488.851 223.833L488.475 223.77L488.283 230.89C490.754 230.538 493.273 229.705 495.773 228.132L496.189 227.863C498.235 226.507 499.822 224.941 501.061 223.258Z" fill="black"/><g id="Group"><path id="Fill 41" fill-rule="evenodd" clip-rule="evenodd" d="M753.043 645.627C753.043 654.69 745.696 662.037 736.634 662.037C727.571 662.037 720.225 654.69 720.225 645.627C720.225 636.564 727.571 629.218 736.634 629.218C745.696 629.218 753.043 636.564 753.043 645.627" fill="black"/><path id="Fill 43" fill-rule="evenodd" clip-rule="evenodd" d="M742.569 756.914H774.707V724.776H742.569V756.914Z" fill="black"/><path id="Fill 44" fill-rule="evenodd" clip-rule="evenodd" d="M628 584.958H753.043V563.076H628V584.958Z" fill="black"/><path id="Fill 45_2" fill-rule="evenodd" clip-rule="evenodd" d="M648.689 660.343L666.146 630.489L683.363 660.343H648.689Z" fill="black"/><path id="Stroke 46_2" d="M773.302 548.066C774.082 548.066 774.723 548.661 774.796 549.422L774.802 549.566V684.129C774.802 684.909 774.208 685.55 773.447 685.622L773.302 685.629H702.728C701.949 685.629 701.308 685.034 701.235 684.274L701.228 684.129L701.228 610.036H630.499V739.346H758.637C759.417 739.346 760.058 739.941 760.131 740.702L760.137 740.846C760.137 741.626 759.542 742.267 758.782 742.339L758.637 742.346H628.999C628.22 742.346 627.579 741.751 627.506 740.991L627.499 740.846V608.536C627.499 607.756 628.094 607.116 628.855 607.043L628.999 607.036H702.728C703.508 607.036 704.149 607.631 704.222 608.392L704.228 608.536L704.228 682.629H771.802L771.802 549.566C771.802 548.787 772.397 548.146 773.158 548.073L773.302 548.066Z" fill="black"/></g></g><g id="Element" transform="translate(132 379) scale(1 1)"><g id="Element/Vase"><g id="Group"><path id="Stroke 56" fill-rule="evenodd" clip-rule="evenodd" d="M100.406 224.454H169.992C170.82 224.454 171.492 225.126 171.492 225.954V241.847C171.492 242.676 170.82 243.347 169.992 243.347H100.406C99.5773 243.347 98.9057 242.676 98.9057 241.847V225.954C98.9057 225.126 99.5773 224.454 100.406 224.454ZM168.491 240.347V227.454H101.905V240.347H168.491Z" fill="black"/><path id="Stroke 58" d="M165.038 240.354C165.816 240.301 166.495 240.851 166.62 241.605L166.636 241.748L171.705 316.278L172.886 333.538L177.585 402.568C177.641 403.389 177.027 404.092 176.224 404.164L176.089 404.17H94.3097C93.4869 404.17 92.827 403.51 92.8099 402.704L92.8131 402.568L97.5122 333.538L98.6931 316.278L103.762 241.748C103.818 240.922 104.534 240.297 105.36 240.354C106.138 240.407 106.737 241.044 106.758 241.807L106.755 241.952L101.686 316.483L100.505 333.742L95.915 401.17H174.483L169.893 333.743L168.712 316.482L163.643 241.952C163.587 241.125 164.211 240.41 165.038 240.354Z" fill="black"/><path id="Stroke 59" d="M85.1684 160.922L85.5314 161.165L86.1997 161.622C86.5194 161.844 86.8222 162.059 87.1291 162.283C88.7388 163.458 90.2544 164.734 91.8642 166.318L92.7342 167.183C98.4101 172.888 101.614 177.407 103.311 183.988C104.37 188.098 104.299 190.803 103.426 195.504L103.155 196.933C102.475 200.568 102.423 202.75 103.228 205.692C104.753 211.263 108.811 215.953 114.979 219.952C115.674 220.403 115.872 221.332 115.422 222.027C114.971 222.722 114.042 222.92 113.347 222.469C106.615 218.104 102.081 212.865 100.334 206.484C99.4271 203.169 99.4464 200.641 100.115 196.879L100.383 195.451C101.27 190.827 101.369 188.473 100.406 184.737C98.7988 178.505 95.6178 174.221 89.7599 168.457C88.2578 166.978 86.8546 165.796 85.3606 164.706C84.977 164.426 84.5981 164.159 84.1753 163.871L81.7699 162.261C79.5393 160.741 78.1463 159.48 76.7276 157.495C76.4608 157.122 76.1984 156.728 75.9387 156.31C72.0577 150.058 70.4582 142.553 73.8261 138.646C76.0677 136.046 79.8795 135.457 84.6614 136.182C86.2914 136.43 87.9449 136.821 89.557 137.305C90.6027 137.619 91.4714 137.922 92.0779 138.158C107.833 144.261 120.25 163.819 119.304 181.855C119.17 184.394 118.844 186.402 118.191 189.231L117.591 191.77C117.529 192.04 117.474 192.285 117.423 192.523C116.691 195.918 116.608 198.453 117.341 201.849C118.788 208.547 122.614 214.147 128.098 219.09C128.714 219.645 128.763 220.593 128.208 221.209C127.654 221.824 126.705 221.873 126.09 221.319C120.178 215.991 116.008 209.886 114.409 202.482C113.617 198.815 113.667 195.96 114.378 192.426L114.545 191.637L115.136 189.116C115.843 186.135 116.177 184.192 116.308 181.698C117.187 164.946 105.531 146.586 90.9931 140.955L90.5972 140.806C90.0932 140.622 89.4453 140.404 88.6947 140.179C87.2087 139.733 85.6888 139.373 84.2113 139.148C80.354 138.563 77.4749 139.008 76.0982 140.605C73.8889 143.168 75.2364 149.49 78.4875 154.727C78.7133 155.091 78.9397 155.431 79.1682 155.751C80.2807 157.307 81.3538 158.313 83.1003 159.534L83.9236 160.094C84.4776 160.464 85.243 160.971 85.1684 160.922Z" fill="black"/><path id="Stroke 60" d="M118.578 57.0148C122.664 50.1081 133.077 48.4712 140.075 53.1355C146.327 57.303 149.663 65.3972 149.17 73.7382C148.783 80.2902 146.444 86.6347 142.121 94.3356L140.396 97.3496C135.502 105.884 133.851 110.503 134.811 115.741C135.227 118.006 135.995 119.783 137.981 123.48L138.789 124.981C139.04 125.452 139.238 125.828 139.438 126.219C143.704 134.572 145.794 144.021 145.45 153.395C145.232 159.316 144.378 164.006 142.03 173.637L140.679 179.149C140.326 180.617 140.063 181.754 139.792 182.983C137.198 194.755 137.869 205.585 141.482 219.901C141.685 220.704 141.198 221.519 140.395 221.722C139.592 221.925 138.776 221.438 138.573 220.635C134.924 206.175 134.183 195.038 136.715 183.019L136.862 182.338C137.157 181 137.442 179.774 137.838 178.134L139.379 171.84C141.479 163.136 142.252 158.721 142.452 153.285C142.769 144.655 140.902 135.951 137.08 128.21L136.766 127.584C136.639 127.335 136.511 127.09 136.368 126.819L134.905 124.088C133.085 120.645 132.316 118.764 131.86 116.282C130.769 110.329 132.426 105.366 137.236 96.838L139.15 93.4948C143.498 85.8663 145.81 79.743 146.175 73.5612C146.61 66.2151 143.7 59.1579 138.411 55.6318C132.773 51.8735 124.319 53.2023 121.16 58.5422C119.628 61.1326 119.218 64.5265 119.81 68.2777L119.88 68.696C120.229 70.6752 120.684 72.2825 121.757 75.5296L122.673 78.2993C122.82 78.7517 122.94 79.1349 123.07 79.5596C125.652 87.994 126.325 96.3345 124.73 103.938L124.61 104.485C124.034 107.005 123.197 109.132 121.37 113.085L120.384 115.21C118.155 120.062 117.293 122.62 117.062 125.727C116.734 130.137 117.939 133.725 121.541 140.671L123.246 143.932C123.929 145.25 124.301 146.01 124.766 147.022C125.066 147.674 125.337 148.297 125.582 148.906C129.599 158.864 131.678 167.052 131.861 175.421C132.009 182.268 131.077 188.993 129.058 195.172C128.8 195.959 127.953 196.389 127.166 196.131C126.378 195.874 125.949 195.027 126.206 194.24C128.117 188.392 129.003 182.004 128.861 175.486C128.688 167.536 126.692 159.679 122.8 150.028C122.63 149.606 122.446 149.175 122.246 148.728L122.041 148.276C121.573 147.258 121.199 146.498 120.46 145.076L118.864 142.027C115.1 134.764 113.746 130.81 114.048 125.831L114.07 125.505C114.342 121.838 115.334 118.975 117.859 113.522L118.817 111.457C120.555 107.675 121.289 105.728 121.794 103.322C123.235 96.4562 122.679 88.8643 120.407 81.1215L120.102 80.1161C120.02 79.8513 119.937 79.5905 119.844 79.3017L118.655 75.7002C117.714 72.8136 117.277 71.21 116.926 69.2173C116.12 64.6524 116.579 60.3952 118.578 57.0148Z" fill="black"/><path id="Stroke 61" d="M185.488 110.119C191.001 106.457 198.549 106.464 203.036 110.645C208.17 115.43 208.547 124.329 205.461 132.287C201.892 141.492 196.586 150.395 189.717 159.072L188.66 160.391C186.479 163.085 184.487 165.381 180.716 169.596L176.943 173.81C173.683 177.467 171.817 179.636 169.803 182.138L167.158 185.458L166.888 185.802C161.978 192.07 159.093 196.679 157.383 201.671C155.237 207.937 155.394 214.101 158.29 220.6C158.628 221.357 158.288 222.243 157.531 222.581C156.774 222.918 155.888 222.578 155.55 221.821C152.337 214.61 152.159 207.663 154.545 200.698C156.277 195.64 159.062 191.054 163.622 185.118L164.887 183.493L167.466 180.256C169.644 177.551 171.64 175.242 175.325 171.118L179.723 166.203C182.878 162.66 184.666 160.573 186.71 158.031C193.722 149.316 199.099 140.397 202.664 131.202C205.355 124.262 205.031 116.605 200.991 112.84C197.6 109.681 191.578 109.675 187.148 112.618C183.228 115.222 180.378 119.664 178.389 125.592C177.048 129.589 176.253 133.246 175.189 139.793L174.338 145.144C172.76 154.875 171.592 159.576 169.06 165.041L168.777 165.643C166.88 169.613 164.758 172.791 160.287 178.755L158.428 181.228C156.595 183.673 155.579 185.078 154.485 186.7L154.342 186.913C147.248 197.493 145.171 207.65 150.245 215.569C150.692 216.267 150.489 217.195 149.792 217.641C149.094 218.088 148.166 217.885 147.719 217.188C141.921 208.138 144.109 196.981 151.572 185.661L152.144 184.806C153.167 183.297 154.148 181.94 155.781 179.758L157.874 176.972C162.451 170.867 164.478 167.797 166.338 163.78L166.613 163.177C168.948 157.966 170.036 153.183 171.66 142.894L172.144 139.831C173.246 132.984 174.059 129.142 175.433 124.976L175.545 124.638C177.726 118.134 180.925 113.15 185.488 110.119Z" fill="black"/><path id="Stroke 62" fill-rule="evenodd" clip-rule="evenodd" d="M90.9414 89.3254C84.2869 78.2927 65.7549 75.1227 47.4476 82.3735C46.6774 82.6786 46.3003 83.5502 46.6054 84.3205C46.9104 85.0907 47.7821 85.4678 48.5523 85.1627C65.6376 78.3958 82.5953 81.2965 88.3725 90.8748L88.559 91.1926C90.9399 95.3644 91.6389 101.094 90.3085 106.053L90.285 106.135L89.9593 105.882C88.6084 104.857 87.1419 104.013 85.5533 103.372C85.1505 103.21 84.8658 103.097 84.5956 102.995L84.1022 102.814C81.7605 101.982 79.6159 101.619 77.4846 101.95C76.3153 102.132 75.2146 102.527 74.2022 103.156C70.788 105.277 68.7401 109.628 69.8894 113.519C71.0595 117.479 75.1689 119.811 79.2841 119.926C82.7385 120.023 85.763 118.342 88.3532 115.541C89.082 114.753 89.7356 113.916 90.3216 113.057L90.5077 112.781C90.8027 112.336 91.0293 111.962 91.2892 111.512L91.355 111.392L91.4896 111.554C92.6231 112.955 93.6393 114.552 94.5436 116.32C96.21 119.579 97.2095 122.741 97.8545 125.74C98.0286 126.55 98.8263 127.066 99.6363 126.892C100.446 126.717 100.962 125.92 100.787 125.11C100.092 121.877 99.0201 118.485 97.2146 114.955L96.9732 114.491C95.7532 112.188 94.3426 110.139 92.719 108.391L92.8145 108.122C94.9084 101.951 94.1059 94.5723 90.9414 89.3254ZM83.0975 105.641L83.2488 105.695C83.3969 105.749 83.5377 105.801 83.692 105.861L84.4312 106.154L84.8188 106.317C86.3585 106.987 87.7719 107.898 89.0644 109.024L89.166 109.115L89.059 109.334C88.9417 109.564 88.819 109.79 88.6906 110.013C88.4132 110.493 88.1849 110.866 87.8434 111.367C87.3362 112.11 86.7722 112.832 86.1505 113.504C84.0927 115.73 81.8146 116.996 79.3682 116.927C76.4227 116.844 73.5123 115.194 72.7665 112.669C72.0287 110.172 73.4478 107.157 75.7856 105.704C76.4458 105.294 77.1644 105.036 77.9457 104.915C79.4919 104.674 81.1831 104.96 83.0975 105.641Z" fill="black"/><path id="Stroke 63" d="M191.634 79.705C192.439 79.5092 193.25 80.003 193.446 80.8079C193.642 81.6129 193.148 82.4242 192.343 82.62C190.946 82.9597 189.468 83.3899 187.652 84.0466C184.981 85.0124 182.264 86.2434 179.579 87.7801C172.321 91.9337 166.318 97.7019 162.279 105.373C158.078 113.353 156.901 121.337 157.432 129.025C157.489 129.851 156.865 130.568 156.039 130.625C155.213 130.682 154.496 130.058 154.439 129.232C153.872 121.034 155.128 112.515 159.624 103.976C163.949 95.7612 170.365 89.5967 178.089 85.1763C180.931 83.5494 183.805 82.2476 186.632 81.2254C188.56 80.528 190.139 80.0685 191.634 79.705Z" fill="black"/><path id="Fill 64" fill-rule="evenodd" clip-rule="evenodd" d="M171.389 333.64H99.0087L100.19 313.802H170.209L171.389 333.64Z" fill="black"/><path id="Fill 87" fill-rule="evenodd" clip-rule="evenodd" d="M121.845 299.626C121.845 302.658 119.387 305.115 116.356 305.115C113.324 305.115 110.866 302.658 110.866 299.626C110.866 296.595 113.324 294.137 116.356 294.137C119.387 294.137 121.845 296.595 121.845 299.626" fill="black"/><path id="Fill 88" fill-rule="evenodd" clip-rule="evenodd" d="M140.688 299.626C140.688 302.658 138.23 305.115 135.199 305.115C132.167 305.115 129.709 302.658 129.709 299.626C129.709 296.595 132.167 294.137 135.199 294.137C138.23 294.137 140.688 296.595 140.688 299.626" fill="black"/><path id="Fill 89" fill-rule="evenodd" clip-rule="evenodd" d="M159.532 299.626C159.532 302.658 157.074 305.115 154.043 305.115C151.011 305.115 148.553 302.658 148.553 299.626C148.553 296.595 151.011 294.137 154.043 294.137C157.074 294.137 159.532 296.595 159.532 299.626" fill="black"/><path id="Fill 90" fill-rule="evenodd" clip-rule="evenodd" d="M121.845 383.532C121.845 386.564 119.387 389.021 116.356 389.021C113.324 389.021 110.866 386.564 110.866 383.532C110.866 380.501 113.324 378.043 116.356 378.043C119.387 378.043 121.845 380.501 121.845 383.532" fill="black"/><path id="Fill 91" fill-rule="evenodd" clip-rule="evenodd" d="M140.688 383.532C140.688 386.564 138.23 389.021 135.199 389.021C132.167 389.021 129.709 386.564 129.709 383.532C129.709 380.501 132.167 378.043 135.199 378.043C138.23 378.043 140.688 380.501 140.688 383.532" fill="black"/><path id="Fill 92" fill-rule="evenodd" clip-rule="evenodd" d="M159.532 383.532C159.532 386.564 157.074 389.021 154.043 389.021C151.011 389.021 148.553 386.564 148.553 383.532C148.553 380.501 151.011 378.043 154.043 378.043C157.074 378.043 159.532 380.501 159.532 383.532" fill="black"/><path id="Stroke 93" d="M104.542 357.842C104.935 357.633 105.397 357.61 105.805 357.772L105.955 357.842L112.742 361.465L119.526 357.842C119.918 357.633 120.381 357.609 120.789 357.772L120.939 357.842L127.723 361.464L134.505 357.842C134.897 357.633 135.36 357.609 135.768 357.773L135.918 357.843L142.698 361.464L149.479 357.843C149.871 357.633 150.334 357.609 150.742 357.773L150.892 357.843L157.671 361.464L164.449 357.843C164.841 357.633 165.304 357.609 165.712 357.773L165.862 357.842L173.35 361.842C174.081 362.233 174.357 363.142 173.967 363.872C173.599 364.56 172.773 364.845 172.067 364.551L171.937 364.489L165.155 360.866L158.379 364.488C157.986 364.698 157.523 364.722 157.115 364.558L156.965 364.489L150.185 360.866L143.405 364.489C143.013 364.698 142.55 364.722 142.142 364.558L141.992 364.489L135.211 360.866L128.43 364.489C128.038 364.698 127.575 364.722 127.167 364.559L127.017 364.489L120.233 360.865L113.45 364.489C113.058 364.698 112.596 364.722 112.188 364.559L112.037 364.489L105.248 360.865L98.4609 364.489C97.773 364.856 96.9277 364.633 96.5054 363.996L96.4313 363.872C96.0641 363.184 96.2872 362.339 96.924 361.916L97.0482 361.842L104.542 357.842Z" fill="black"/><path id="Stroke 94" d="M109.246 268.925C109.692 268.641 110.251 268.616 110.718 268.848L110.855 268.925L116.346 272.413L121.833 268.925C122.279 268.641 122.839 268.615 123.306 268.848L123.443 268.925L128.923 272.413L134.409 268.925C134.855 268.641 135.415 268.615 135.882 268.848L136.019 268.925L141.5 272.413L146.985 268.925C147.431 268.641 147.991 268.615 148.458 268.848L148.595 268.925L154.076 272.413L159.556 268.925C160.003 268.641 160.563 268.615 161.03 268.848L161.167 268.926L167.449 272.926C168.148 273.371 168.354 274.298 167.909 274.997C167.49 275.654 166.644 275.875 165.963 275.528L165.838 275.456L160.36 271.969L154.882 275.456C154.435 275.741 153.876 275.767 153.409 275.534L153.271 275.456L147.789 271.968L142.306 275.457C141.859 275.741 141.3 275.766 140.833 275.534L140.695 275.456L135.213 271.968L129.729 275.457C129.282 275.741 128.723 275.766 128.255 275.534L128.118 275.456L122.637 271.968L117.151 275.457C116.705 275.741 116.146 275.766 115.679 275.534L115.542 275.457L110.05 271.967L104.559 275.457C103.901 275.875 103.041 275.717 102.572 275.114L102.488 274.995C102.07 274.337 102.229 273.477 102.832 273.008L102.95 272.925L109.246 268.925Z" fill="black"/></g></g></g></g></svg>